<mxfile host="65bd71144e">
    <diagram id="1ZIg0mPyYts0fezHMZtH" name="第 1 页">
        <mxGraphModel dx="1741" dy="720" grid="1" gridSize="10" guides="1" tooltips="1" connect="1" arrows="1" fold="1" page="1" pageScale="1" pageWidth="827" pageHeight="1169" math="0" shadow="0">
            <root>
                <mxCell id="0"/>
                <mxCell id="1" parent="0"/>
                <mxCell id="2" value="&lt;div style=&quot;text-align: left;&quot;&gt;&lt;div&gt;&lt;span style=&quot;&quot;&gt;&#9;&lt;/span&gt;&lt;span style=&quot;font-size: 24px;&quot;&gt;&lt;span style=&quot;&quot;&gt;&#9;&lt;/span&gt;&lt;span style=&quot;white-space: pre;&quot;&gt;&#9;&lt;/span&gt;当 Vue 的编译器在编译过程中，发现了一些不会变的节点或者属性，就会给这些节点打上标记。（虚拟节点静态标记）&lt;/span&gt;&lt;/div&gt;&lt;div&gt;&lt;span style=&quot;font-size: 24px;&quot;&gt;&lt;span style=&quot;&quot;&gt;&#9;&lt;/span&gt;&lt;span style=&quot;&quot;&gt;&#9;&lt;/span&gt;&lt;span style=&quot;white-space: pre;&quot;&gt;&#9;&lt;/span&gt;然后编译器在生成代码字符串的过程中，会发现这些静态的节点，并提升它们，将他们序列化成字符串，以此减少编译及渲染成本。（静态元素提升）&lt;/span&gt;&lt;/div&gt;&lt;/div&gt;" style="text;strokeColor=none;align=center;fillColor=none;html=1;verticalAlign=middle;whiteSpace=wrap;rounded=0;fontSize=14;fontColor=#FF3333;labelBackgroundColor=#FFFF00;" vertex="1" parent="1">
                    <mxGeometry x="-690" y="360" width="540" height="206" as="geometry"/>
                </mxCell>
            </root>
        </mxGraphModel>
    </diagram>
</mxfile>